<?xml version="1.0" encoding="UTF-8"?>
<svg width="20px" height="19px" viewBox="0 0 20 19" version="1.1" xmlns="http://www.w3.org/2000/svg" xmlns:xlink="http://www.w3.org/1999/xlink">
    <title>Shape</title>
    <g id="Page-1" stroke="none" stroke-width="1" fill="none" fill-rule="evenodd">
        <path d="M10.75,0.5654297 C9.8958335,0.5654297 9.160241,0.9117698 8.689453,1.44140625 C8.2186655,1.9710427 8,2.648763 8,3.3154295 C8,3.7443705 8.101059,4.1739195 8.2910155,4.569336 C8.277059,4.5689975 8.2640295,4.5654297 8.25,4.5654297 L1.75,4.5654297 C0.7925226,4.5654297 0,5.3579525 0,6.3154295 L0,12.8154295 C0,13.772907 0.7925226,14.5654297 1.75,14.5654297 L5.6572265,14.5654297 C6.2178175,16.8599395 8.2912805,18.5654297 10.75,18.5654297 C12.7576395,18.5654297 14.507023,17.4256415 15.3896485,15.761719 C15.805193,15.954415 16.2658425,16.0654297 16.75,16.0654297 C18.535797,16.0654297 20,14.601227 20,12.8154295 L20,7.8154295 C20,7.40123309 19.6641964,7.06547091 19.25,7.0654297 L15.25,7.0654297 L10,7.0654297 L10,6.3154295 C10,6.1928445 9.9856015,6.073868 9.9609375,5.958008 C10.2086155,6.0258015 10.47221,6.0654297 10.75,6.0654297 C11.6041665,6.0654297 12.339759,5.718113 12.810547,5.1884765 C13.2813345,4.65884 13.5,3.9820965 13.5,3.3154295 C13.5,2.648763 13.2813345,1.9710427 12.810547,1.44140625 C12.339759,0.9117698 11.6041665,0.5654297 10.75,0.5654297 Z M16.75,1.5654297 C16.0625,1.5654297 15.4519075,1.84927005 15.064453,2.285156 C14.6769985,2.7210425 14.5,3.273763 14.5,3.8154295 C14.5,4.3570965 14.6769985,4.90884 15.064453,5.3447265 C15.4519075,5.780613 16.0625,6.0654297 16.75,6.0654297 C17.4375,6.0654297 18.0480925,5.780613 18.435547,5.3447265 C18.8230015,4.90884 19,4.3570965 19,3.8154295 C19,3.273763 18.8230015,2.7210425 18.435547,2.285156 C18.0480925,1.84927005 17.4375,1.5654297 16.75,1.5654297 Z M10.75,2.0654295 C11.2291665,2.0654295 11.4935745,2.218113 11.689453,2.4384765 C11.885332,2.65884 12,2.9820965 12,3.3154295 C12,3.648763 11.885332,3.9710425 11.689453,4.191406 C11.4935745,4.4117705 11.2291665,4.5654295 10.75,4.5654295 C10.2708335,4.5654295 10.0064255,4.4117705 9.810547,4.191406 C9.614668,3.971043 9.5,3.648763 9.5,3.3154295 C9.5,2.9820965 9.614668,2.65884 9.810547,2.4384765 C10.0064255,2.218113 10.2708335,2.0654295 10.75,2.0654295 Z M16.75,3.0654295 C17.0624995,3.0654295 17.201908,3.155613 17.314453,3.2822265 C17.4269985,3.40884 17.5,3.6070965 17.5,3.8154295 C17.5,4.023763 17.4269985,4.2210425 17.314453,4.347656 C17.201908,4.4742705 17.0624995,4.5654295 16.75,4.5654295 C16.4375005,4.5654295 16.298092,4.4742705 16.185547,4.347656 C16.0730015,4.221043 16,4.023763 16,3.8154295 C16,3.6070965 16.0730015,3.40884 16.185547,3.2822265 C16.298092,3.155613 16.4375005,3.0654295 16.75,3.0654295 Z M1.75,6.0654295 L8.25,6.0654295 C8.3975225,6.0654295 8.5,6.167907 8.5,6.3154295 L8.5,7.692383 C8.48677414,7.77289814 8.48677414,7.85503186 8.5,7.935547 L8.5,12.8154295 C8.5,12.9629525 8.3975225,13.0654295 8.25,13.0654295 L6.373047,13.0654295 C6.30950664,13.0572555 6.24518086,13.0572555 6.1816405,13.0654295 L1.75,13.0654295 C1.6024774,13.0654295 1.5,12.9629525 1.5,12.8154295 L1.5,6.3154295 C1.5,6.167907 1.6024774,6.0654295 1.75,6.0654295 Z M3.5,7.0654295 C3.224,7.0654295 3,7.2894295 3,7.5654295 C3,7.8419295 3.224,8.0654295 3.5,8.0654295 L4.5,8.0654295 L4.5,11.5654295 C4.5,11.8414295 4.724,12.0654295 5,12.0654295 C5.276,12.0654295 5.5,11.8419295 5.5,11.5654295 L5.5,8.0654295 L6.5,8.0654295 C6.776,8.0654295 7,7.8414295 7,7.5654295 C7,7.2894295 6.776,7.0654295 6.5,7.0654295 L3.5,7.0654295 Z M10,8.5654295 L14.5,8.5654295 L14.5,13.3154295 C14.5,13.6722345 14.447448,14.0154515 14.355469,14.341797 C14.333127,14.3938174 14.3167466,14.4482001 14.3066405,14.503906 C13.812084,15.995603 12.4131755,17.0654295 10.75,17.0654295 C9.1116415,17.0654295 7.730546,16.021254 7.21875,14.5654295 L8.25,14.5654295 C9.2074775,14.5654295 10,13.772907 10,12.8154295 L10,8.5654295 Z M16,8.5654295 L18.5,8.5654295 L18.5,12.8154295 C18.5,13.7896325 17.724203,14.5654295 16.75,14.5654295 C16.438941,14.5654295 16.150627,14.478344 15.8984375,14.3359375 C15.964047,14.0055655 16,13.6645085 16,13.3154295 L16,8.5654295 Z" id="Shape" fill="#000000" fill-rule="nonzero"></path>
    </g>
</svg>